<svg version="1.1" xmlns="http://www.w3.org/2000/svg" viewBox="0 0 1392.6018810248286 857.6461621272723" width="1392.6018810248286" height="857.6461621272723">
  <!-- svg-source:excalidraw -->
  
  <defs>
    <style class="style-fonts">
      @font-face {
        font-family: "Virgil";
        src: url("https://excalidraw.com/Virgil.woff2");
      }
      @font-face {
        font-family: "Cascadia";
        src: url("https://excalidraw.com/Cascadia.woff2");
      }
      @font-face {
        font-family: "Assistant";
        src: url("https://excalidraw.com/Assistant-Regular.woff2");
      }
    </style>
    
  </defs>
  <rect x="0" y="0" width="1392.6018810248286" height="857.6461621272723" fill="#ffffff"></rect><g stroke-linecap="round" transform="translate(1154.7536542497678 173.30970466645147) rotate(0 103 47.5)"><path d="M23.75 0 C68.92 -0.37, 114.11 1.4, 182.25 0 M23.75 0 C69.16 0.02, 113.71 0.39, 182.25 0 M182.25 0 C198.5 -0.44, 206.67 6.46, 206 23.75 M182.25 0 C196.75 -1.01, 205.37 6.61, 206 23.75 M206 23.75 C207.18 40.83, 207.02 53.28, 206 71.25 M206 23.75 C206.88 35.26, 206.4 45.29, 206 71.25 M206 71.25 C205.55 87.76, 199.57 94.31, 182.25 95 M206 71.25 C205.44 88.33, 199.54 93.4, 182.25 95 M182.25 95 C124.17 94.55, 67.72 92.69, 23.75 95 M182.25 95 C145.21 94.5, 109.4 95.18, 23.75 95 M23.75 95 C7.06 96.44, 0.94 85.99, 0 71.25 M23.75 95 C9.2 93.86, -1.35 86.98, 0 71.25 M0 71.25 C-1.84 56.64, 1.31 44.8, 0 23.75 M0 71.25 C0.21 56.03, -0.23 39.44, 0 23.75 M0 23.75 C1.41 9.37, 8.44 1.02, 23.75 0 M0 23.75 C-0.87 6.55, 6.37 -0.99, 23.75 0" stroke="#1e1e1e" stroke-width="2" fill="none"></path></g><g transform="translate(1175.5773251671683 189.6542525891229) rotate(0 84.60994720458984 37.5)"><text x="0" y="17.52" font-family="Virgil, Segoe UI Emoji" font-size="20px" fill="#1e1e1e" text-anchor="start" style="white-space: pre;" direction="ltr" dominant-baseline="alphabetic">:PersonM</text><text x="0" y="42.519999999999996" font-family="Virgil, Segoe UI Emoji" font-size="20px" fill="#1e1e1e" text-anchor="start" style="white-space: pre;" direction="ltr" dominant-baseline="alphabetic">name = John Doe</text><text x="0" y="67.52" font-family="Virgil, Segoe UI Emoji" font-size="20px" fill="#1e1e1e" text-anchor="start" style="white-space: pre;" direction="ltr" dominant-baseline="alphabetic">birthdate = ...</text></g><g stroke-linecap="round"><g transform="translate(1157.3036731742357 208.77380997402832) rotate(0 102.40415351491686 0.8555241705448111)"><path d="M0.55 0.72 C34.9 0.66, 171.47 0.48, 205.43 0.53 M-0.63 0.06 C33.71 0.05, 170.96 1.3, 204.98 1.65" stroke="#1e1e1e" stroke-width="2" fill="none"></path></g></g><mask></mask><g stroke-linecap="round" transform="translate(1170.6375534870476 395.2702015803182) rotate(0 103 47.50000000000003)"><path d="M23.75 0 C55.81 -1.42, 90.02 0.9, 182.25 0 M23.75 0 C60.2 1.97, 98.83 2.01, 182.25 0 M182.25 0 C196.34 0.9, 204.43 8.88, 206 23.75 M182.25 0 C196.81 0.89, 205.43 7.96, 206 23.75 M206 23.75 C204.9 37.81, 207.51 51.93, 206 71.25 M206 23.75 C206.24 35.43, 206 48.45, 206 71.25 M206 71.25 C206.05 87.83, 196.54 95.65, 182.25 95 M206 71.25 C205.6 89.34, 199.09 95.45, 182.25 95 M182.25 95 C144.53 93.89, 103.31 95.41, 23.75 95 M182.25 95 C140.5 96.42, 98.26 96.01, 23.75 95 M23.75 95 C8.82 93.4, 1.57 87.16, 0 71.25 M23.75 95 C7.4 96.4, 0.05 87.1, 0 71.25 M0 71.25 C2.02 53.45, -0.07 33.55, 0 23.75 M0 71.25 C0.99 59.67, -0.65 47.28, 0 23.75 M0 23.75 C-1.77 8.33, 8.5 -1.52, 23.75 0 M0 23.75 C1.19 7.15, 9.37 0.06, 23.75 0" stroke="#1e1e1e" stroke-width="2" fill="none"></path></g><g transform="translate(1191.4612244044483 411.6147495029896) rotate(0 86.26995086669922 37.50000000000003)"><text x="0" y="17.52" font-family="Virgil, Segoe UI Emoji" font-size="20px" fill="#1e1e1e" text-anchor="start" style="white-space: pre;" direction="ltr" dominant-baseline="alphabetic">:PersonM</text><text x="0" y="42.519999999999996" font-family="Virgil, Segoe UI Emoji" font-size="20px" fill="#1e1e1e" text-anchor="start" style="white-space: pre;" direction="ltr" dominant-baseline="alphabetic">name = Jane Doe</text><text x="0" y="67.52" font-family="Virgil, Segoe UI Emoji" font-size="20px" fill="#1e1e1e" text-anchor="start" style="white-space: pre;" direction="ltr" dominant-baseline="alphabetic">birthdate = ...</text></g><g stroke-linecap="round"><g transform="translate(1173.1875724115157 430.734306887895) rotate(0 101.47511330094449 0.31425097673562163)"><path d="M0.27 -0.78 C34.46 -0.87, 170.1 -0.2, 203.99 0.27 M-1.04 1.42 C33.04 1.38, 168.27 1.48, 202.78 1.25" stroke="#1e1e1e" stroke-width="2" fill="none"></path></g></g><mask></mask><g stroke-linecap="round" transform="translate(1174.5702659510189 530.293329509998) rotate(0 103 47.5)"><path d="M23.75 0 C54.21 2.28, 86.69 -1.35, 182.25 0 M23.75 0 C66.07 -1.62, 108.11 -1.41, 182.25 0 M182.25 0 C197.61 1.54, 207.3 8.42, 206 23.75 M182.25 0 C197.13 1.11, 208.1 9.27, 206 23.75 M206 23.75 C207.62 35.29, 203.92 47.95, 206 71.25 M206 23.75 C205.6 43.46, 206.08 60.87, 206 71.25 M206 71.25 C207.41 88.95, 199.87 96.33, 182.25 95 M206 71.25 C205.62 86.6, 198.01 93.56, 182.25 95 M182.25 95 C122.4 93.48, 62.61 97.04, 23.75 95 M182.25 95 C136.9 94.2, 89.78 93.66, 23.75 95 M23.75 95 C8.28 95.42, -1.24 87.74, 0 71.25 M23.75 95 C8.53 95.58, -0.89 87.73, 0 71.25 M0 71.25 C-1.01 52.86, 0.24 32.97, 0 23.75 M0 71.25 C-1.43 57.86, -0.23 42.14, 0 23.75 M0 23.75 C0.83 9.91, 7.98 1.21, 23.75 0 M0 23.75 C-0.16 6.33, 8.89 2.07, 23.75 0" stroke="#1e1e1e" stroke-width="2" fill="none"></path></g><g transform="translate(1195.3939368684194 546.6378774326694) rotate(0 84.60994720458984 37.5)"><text x="0" y="17.52" font-family="Virgil, Segoe UI Emoji" font-size="20px" fill="#1e1e1e" text-anchor="start" style="white-space: pre;" direction="ltr" dominant-baseline="alphabetic">:PersonM</text><text x="0" y="42.519999999999996" font-family="Virgil, Segoe UI Emoji" font-size="20px" fill="#1e1e1e" text-anchor="start" style="white-space: pre;" direction="ltr" dominant-baseline="alphabetic">name = John Doe</text><text x="0" y="67.52" font-family="Virgil, Segoe UI Emoji" font-size="20px" fill="#1e1e1e" text-anchor="start" style="white-space: pre;" direction="ltr" dominant-baseline="alphabetic">birthdate = ...</text></g><g stroke-linecap="round"><g transform="translate(1177.1202848754867 565.7574348175748) rotate(0 102.80696912884048 0.7971266310711371)"><path d="M1.04 -0.67 C35.01 -0.37, 169.6 0.38, 203.37 0.9 M0.13 1.59 C34.48 2.14, 171.16 2.37, 205.48 2.22" stroke="#1e1e1e" stroke-width="2" fill="none"></path></g></g><mask></mask><g stroke-linecap="round" transform="translate(1174.5702659510189 530.293329509998) rotate(0 103 47.5)"><path d="M23.75 0 C84.58 0.06, 144.56 0.34, 182.25 0 M23.75 0 C67.24 -1.03, 110.84 -0.81, 182.25 0 M182.25 0 C198 -0.43, 204.84 6.38, 206 23.75 M182.25 0 C200.27 1.93, 205.73 9.72, 206 23.75 M206 23.75 C204.18 40.53, 206.72 54.43, 206 71.25 M206 23.75 C205.3 35.91, 204.8 49.02, 206 71.25 M206 71.25 C204.91 86.07, 199.83 93.1, 182.25 95 M206 71.25 C205.94 86.74, 195.79 95.44, 182.25 95 M182.25 95 C138.51 95.42, 94.23 96.09, 23.75 95 M182.25 95 C120.81 96.24, 59.1 95.79, 23.75 95 M23.75 95 C9.75 94.01, 1.44 87.84, 0 71.25 M23.75 95 C10.21 93.62, -2.01 87.75, 0 71.25 M0 71.25 C1.71 56.65, -0.46 45.2, 0 23.75 M0 71.25 C0.18 60.44, -0.23 50.96, 0 23.75 M0 23.75 C0.12 6.59, 9.3 0.75, 23.75 0 M0 23.75 C-1.89 6.54, 6.18 -0.4, 23.75 0" stroke="#1e1e1e" stroke-width="2" fill="none"></path></g><g transform="translate(1195.3939368684194 546.6378774326694) rotate(0 86.00994873046875 37.5)"><text x="0" y="17.52" font-family="Virgil, Segoe UI Emoji" font-size="20px" fill="#1e1e1e" text-anchor="start" style="white-space: pre;" direction="ltr" dominant-baseline="alphabetic">:PersonM</text><text x="0" y="42.519999999999996" font-family="Virgil, Segoe UI Emoji" font-size="20px" fill="#1e1e1e" text-anchor="start" style="white-space: pre;" direction="ltr" dominant-baseline="alphabetic">name = Emil  Doe</text><text x="0" y="67.52" font-family="Virgil, Segoe UI Emoji" font-size="20px" fill="#1e1e1e" text-anchor="start" style="white-space: pre;" direction="ltr" dominant-baseline="alphabetic">birthdate = ...</text></g><g stroke-linecap="round"><g transform="translate(1177.1202848754867 565.7574348175748) rotate(0 102.52056681442332 0.24555241686221052)"><path d="M0.88 -0.27 C34.95 -0.08, 171.32 1.74, 205.16 1.98 M-0.12 -1.46 C33.79 -1.69, 170.73 -0.43, 204.56 0.2" stroke="#1e1e1e" stroke-width="2" fill="none"></path></g></g><mask></mask><g stroke-linecap="round" transform="translate(786.9732494836088 230.40372852587024) rotate(0 71.11655039014687 56.36887865025466)"><path d="M28.18 0 C57.03 -0.02, 91.42 1.32, 114.05 0 M28.18 0 C55.75 1.18, 82.88 0.12, 114.05 0 M114.05 0 C130.99 1.46, 141.95 11.12, 142.23 28.18 M114.05 0 C130.6 1.42, 144.13 8.71, 142.23 28.18 M142.23 28.18 C143.55 44.16, 141.12 55.76, 142.23 84.55 M142.23 28.18 C143.25 47.29, 142.69 68.47, 142.23 84.55 M142.23 84.55 C141.29 102.05, 132.68 113.65, 114.05 112.74 M142.23 84.55 C141.39 101.15, 132.05 112.2, 114.05 112.74 M114.05 112.74 C78.55 110.82, 44.68 112.45, 28.18 112.74 M114.05 112.74 C96.38 112.73, 77.53 113.11, 28.18 112.74 M28.18 112.74 C9.24 112.63, -0.18 103.16, 0 84.55 M28.18 112.74 C11.37 112.13, -0.46 103.91, 0 84.55 M0 84.55 C0.15 63.2, 0.35 44.37, 0 28.18 M0 84.55 C-0.09 70.74, -0.05 55.95, 0 28.18 M0 28.18 C1.08 7.73, 8.16 -0.66, 28.18 0 M0 28.18 C1.46 7.91, 8.56 -1.34, 28.18 0" stroke="#1e1e1e" stroke-width="2" fill="none"></path></g><g transform="translate(807.9477159581222 237.6137013764842) rotate(0 48.599952697753906 62.5)"><text x="0" y="17.52" font-family="Virgil, Segoe UI Emoji" font-size="20px" fill="#1e1e1e" text-anchor="start" style="white-space: pre;" direction="ltr" dominant-baseline="alphabetic">:TreeItem</text><text x="0" y="42.519999999999996" font-family="Virgil, Segoe UI Emoji" font-size="20px" fill="#1e1e1e" text-anchor="start" style="white-space: pre;" direction="ltr" dominant-baseline="alphabetic">data =</text><text x="0" y="67.52" font-family="Virgil, Segoe UI Emoji" font-size="20px" fill="#1e1e1e" text-anchor="start" style="white-space: pre;" direction="ltr" dominant-baseline="alphabetic">parent =</text><text x="0" y="92.52" font-family="Virgil, Segoe UI Emoji" font-size="20px" fill="#1e1e1e" text-anchor="start" style="white-space: pre;" direction="ltr" dominant-baseline="alphabetic">children =</text><text x="0" y="117.52" font-family="Virgil, Segoe UI Emoji" font-size="20px" fill="#1e1e1e" text-anchor="start" style="white-space: pre;" direction="ltr" dominant-baseline="alphabetic"></text></g><g stroke-linecap="round"><g transform="translate(898.400102629461 270.38630524291136) rotate(0 123.37792736314259 -24.124389910940693)"><path d="M-0.87 -0.8 C1.19 -1.55, -29.87 3.53, 13.03 -4.43 C55.94 -12.38, 216.16 -40.93, 256.58 -48.52 M0.87 1.4 C2.71 0.8, -30.53 5.48, 12.05 -3.15 C54.62 -11.78, 215.69 -42.72, 256.31 -50.39" stroke="#1971c2" stroke-width="2" fill="none"></path></g><g transform="translate(898.400102629461 270.38630524291136) rotate(0 123.37792736314259 -24.124389910940693)"><path d="M234.84 -37.58 C241.13 -42.1, 249.27 -44.94, 256.31 -50.39 M234.84 -37.58 C242.8 -42.88, 250.01 -47.68, 256.31 -50.39" stroke="#1971c2" stroke-width="2" fill="none"></path></g><g transform="translate(898.400102629461 270.38630524291136) rotate(0 123.37792736314259 -24.124389910940693)"><path d="M231.63 -54.38 C239.07 -52.91, 248.35 -49.78, 256.31 -50.39 M231.63 -54.38 C240.79 -53.35, 249.21 -51.82, 256.31 -50.39" stroke="#1971c2" stroke-width="2" fill="none"></path></g></g><mask></mask><g stroke-linecap="round"><g transform="translate(789.595057792923 260.5545240829832) rotate(0 69.92681790635106 0.6307809388780186)"><path d="M0.2 -0.76 C23.77 -0.53, 117.55 1.79, 141.01 2.02 M-1.15 1.46 C22.36 1.28, 116.84 0.25, 140.45 0.27" stroke="#1e1e1e" stroke-width="1" fill="none"></path></g></g><mask></mask><g stroke-linecap="round" transform="translate(624.0511160081375 90.8881094397665) rotate(0 106.18323652722393 56.36887865025466)"><path d="M28.18 0 C66.41 0.56, 101.96 2.91, 184.18 0 M28.18 0 C73.58 0.12, 117.45 1.52, 184.18 0 M184.18 0 C202.02 1.49, 213.87 11.2, 212.37 28.18 M184.18 0 C201.27 -1.14, 212.87 10.22, 212.37 28.18 M212.37 28.18 C214.18 41.89, 213.4 52.87, 212.37 84.55 M212.37 28.18 C212.54 40.63, 212.5 56, 212.37 84.55 M212.37 84.55 C214.34 103.62, 204.35 110.77, 184.18 112.74 M212.37 84.55 C214.27 104.08, 203.29 115.02, 184.18 112.74 M184.18 112.74 C141.19 114.18, 96.28 113.47, 28.18 112.74 M184.18 112.74 C135.14 111.74, 87 112.22, 28.18 112.74 M28.18 112.74 C10.03 113.22, -0.73 102.05, 0 84.55 M28.18 112.74 C9.84 111.47, -0.97 102.96, 0 84.55 M0 84.55 C1.87 63.27, 0.48 44.22, 0 28.18 M0 84.55 C-0.48 66.55, -0.06 51.03, 0 28.18 M0 28.18 C0.18 7.41, 8.9 0.69, 28.18 0 M0 28.18 C0.48 9.91, 9.77 1.2, 28.18 0" stroke="#1e1e1e" stroke-width="2" fill="none"></path></g><g transform="translate(645.025582482651 98.09808229038039) rotate(0 78.34993743896484 62.5)"><text x="0" y="17.52" font-family="Virgil, Segoe UI Emoji" font-size="20px" fill="#1e1e1e" text-anchor="start" style="white-space: pre;" direction="ltr" dominant-baseline="alphabetic">:TreeItem</text><text x="0" y="42.519999999999996" font-family="Virgil, Segoe UI Emoji" font-size="20px" fill="#1e1e1e" text-anchor="start" style="white-space: pre;" direction="ltr" dominant-baseline="alphabetic">data = nullptr</text><text x="0" y="67.52" font-family="Virgil, Segoe UI Emoji" font-size="20px" fill="#1e1e1e" text-anchor="start" style="white-space: pre;" direction="ltr" dominant-baseline="alphabetic">parent = nullptr</text><text x="0" y="92.52" font-family="Virgil, Segoe UI Emoji" font-size="20px" fill="#1e1e1e" text-anchor="start" style="white-space: pre;" direction="ltr" dominant-baseline="alphabetic">children =</text><text x="0" y="117.52" font-family="Virgil, Segoe UI Emoji" font-size="20px" fill="#1e1e1e" text-anchor="start" style="white-space: pre;" direction="ltr" dominant-baseline="alphabetic"></text></g><g stroke-linecap="round"><g transform="translate(626.6729243174517 121.03890499687942) rotate(0 70.37464980804481 0.3358349207745306)"><path d="M0.9 -0.18 C24.46 -0.19, 117.41 0.63, 140.84 0.75 M-0.09 -1.33 C23.41 -1.24, 116.62 1.52, 140.19 2" stroke="#1e1e1e" stroke-width="1" fill="none"></path></g></g><mask></mask><g stroke-linecap="round"><g transform="translate(752.234289385196 183.86663103554372) rotate(0 21.36063654832185 23.922462978947465)"><path d="M0.41 -0.43 C7.85 7.75, 36.35 39.99, 43.55 48.17 M-0.83 -1.69 C6.57 6.74, 35.44 40.91, 42.75 49.54" stroke="#f08c00" stroke-width="2" fill="none"></path></g><g transform="translate(752.234289385196 183.86663103554372) rotate(0 21.36063654832185 23.922462978947465)"><path d="M21.05 37.14 C24.84 40.17, 29.59 42.94, 42.75 49.54 M21.05 37.14 C28.48 40.67, 34.84 44.72, 42.75 49.54" stroke="#f08c00" stroke-width="2" fill="none"></path></g><g transform="translate(752.234289385196 183.86663103554372) rotate(0 21.36063654832185 23.922462978947465)"><path d="M34.1 26.08 C35.05 31.5, 37.04 36.61, 42.75 49.54 M34.1 26.08 C37.37 33.07, 39.61 40.6, 42.75 49.54" stroke="#f08c00" stroke-width="2" fill="none"></path></g></g><mask></mask><g stroke-linecap="round"><g transform="translate(944.5020805074358 13.277260386642723) rotate(0 42.987659425940365 0.4628202830626549)"><path d="M-0.09 -1.09 C14.56 -1.11, 73.22 0.4, 87.57 0.54 M-1.59 0.95 C12.96 1.06, 71.85 2.08, 86.83 2.01" stroke="#f08c00" stroke-width="2" fill="none"></path></g><g transform="translate(944.5020805074358 13.277260386642723) rotate(0 42.987659425940365 0.4628202830626549)"><path d="M63.27 10.38 C67.84 8.77, 75.89 3.88, 86.83 2.01 M63.27 10.38 C69.45 8.41, 73.37 6.21, 86.83 2.01" stroke="#f08c00" stroke-width="2" fill="none"></path></g><g transform="translate(944.5020805074358 13.277260386642723) rotate(0 42.987659425940365 0.4628202830626549)"><path d="M63.4 -6.72 C68.04 -3.66, 76.05 -3.88, 86.83 2.01 M63.4 -6.72 C69.66 -4.88, 73.54 -3.27, 86.83 2.01" stroke="#f08c00" stroke-width="2" fill="none"></path></g></g><mask></mask><g transform="translate(1039.5426317200745 10) rotate(0 52.289947509765625 12.5)"><text x="0" y="17.52" font-family="Virgil, Segoe UI Emoji" font-size="20px" fill="#f08c00" text-anchor="start" style="white-space: pre;" direction="ltr" dominant-baseline="alphabetic">unique_ptr</text></g><g stroke-linecap="round"><g transform="translate(943.1911763527787 55.226193335669436) rotate(0 43.72419420426712 -0.401878970726699)"><path d="M0.54 0.45 C15.14 0.31, 73.71 -1.15, 88.08 -1.25 M-0.63 -0.36 C13.85 -0.26, 73.21 0.57, 87.6 0.32" stroke="#1971c2" stroke-width="2" fill="none"></path></g><g transform="translate(943.1911763527787 55.226193335669436) rotate(0 43.72419420426712 -0.401878970726699)"><path d="M64.1 8.85 C72.87 7.35, 80.21 2.2, 87.6 0.32 M64.1 8.85 C72.99 5.28, 82.04 2.07, 87.6 0.32" stroke="#1971c2" stroke-width="2" fill="none"></path></g><g transform="translate(943.1911763527787 55.226193335669436) rotate(0 43.72419420426712 -0.401878970726699)"><path d="M64.12 -8.25 C72.82 -3.94, 80.16 -3.27, 87.6 0.32 M64.12 -8.25 C73 -5.03, 82.05 -1.44, 87.6 0.32" stroke="#1971c2" stroke-width="2" fill="none"></path></g></g><mask></mask><g transform="translate(1046.09715249336 53.25983710368381) rotate(0 87.82991790771484 12.5)"><text x="0" y="17.52" font-family="Virgil, Segoe UI Emoji" font-size="20px" fill="#1971c2" text-anchor="start" style="white-space: pre;" direction="ltr" dominant-baseline="alphabetic">* (classic pointer)</text></g><g stroke-linecap="round" transform="translate(845.5939181451846 379.9424755416539) rotate(0 71.11655039014687 56.368878650254686)"><path d="M28.18 0 C48.34 -1.21, 70.24 1.44, 114.05 0 M28.18 0 C47.96 -0.4, 65.47 -0.76, 114.05 0 M114.05 0 C131.18 1.53, 140.95 9.27, 142.23 28.18 M114.05 0 C134.14 0.34, 142.81 10, 142.23 28.18 M142.23 28.18 C141.17 40.03, 141.26 54.22, 142.23 84.55 M142.23 28.18 C141.15 48.17, 142.3 68.29, 142.23 84.55 M142.23 84.55 C142.77 103.92, 132.62 112.32, 114.05 112.74 M142.23 84.55 C141.18 103.91, 130.93 112.09, 114.05 112.74 M114.05 112.74 C90.25 113.71, 63.83 113.08, 28.18 112.74 M114.05 112.74 C92.83 112.6, 72.18 112.53, 28.18 112.74 M28.18 112.74 C9.43 114.69, 0.17 101.43, 0 84.55 M28.18 112.74 C7.42 111.02, 2.12 103.53, 0 84.55 M0 84.55 C1.27 70.59, 0.73 59.11, 0 28.18 M0 84.55 C0.42 70.64, -0.65 55.06, 0 28.18 M0 28.18 C1.39 10.6, 7.88 -0.96, 28.18 0 M0 28.18 C1.82 8.13, 7.44 -1.14, 28.18 0" stroke="#1e1e1e" stroke-width="2" fill="none"></path></g><g transform="translate(866.5683846196981 387.1524483922678) rotate(0 48.599952697753906 62.49999999999997)"><text x="0" y="17.52" font-family="Virgil, Segoe UI Emoji" font-size="20px" fill="#1e1e1e" text-anchor="start" style="white-space: pre;" direction="ltr" dominant-baseline="alphabetic">:TreeItem</text><text x="0" y="42.519999999999996" font-family="Virgil, Segoe UI Emoji" font-size="20px" fill="#1e1e1e" text-anchor="start" style="white-space: pre;" direction="ltr" dominant-baseline="alphabetic">data =</text><text x="0" y="67.52" font-family="Virgil, Segoe UI Emoji" font-size="20px" fill="#1e1e1e" text-anchor="start" style="white-space: pre;" direction="ltr" dominant-baseline="alphabetic">parent =</text><text x="0" y="92.52" font-family="Virgil, Segoe UI Emoji" font-size="20px" fill="#1e1e1e" text-anchor="start" style="white-space: pre;" direction="ltr" dominant-baseline="alphabetic">children =</text><text x="0" y="117.52" font-family="Virgil, Segoe UI Emoji" font-size="20px" fill="#1e1e1e" text-anchor="start" style="white-space: pre;" direction="ltr" dominant-baseline="alphabetic"></text></g><g stroke-linecap="round"><g transform="translate(848.2157264544988 410.0932710987668) rotate(0 70.53704828077116 0.3830873607241756)"><path d="M0.73 -0.95 C24.44 -0.81, 118 1.36, 141.43 1.72 M-0.35 1.16 C23.38 0.87, 117.52 -0.4, 141.09 -0.19" stroke="#1e1e1e" stroke-width="1" fill="none"></path></g></g><mask></mask><g stroke-linecap="round" transform="translate(844.0727790426522 524.1419325539333) rotate(0 71.11655039014687 56.36887865025466)"><path d="M28.18 0 C60.35 -2.45, 92.37 -0.95, 114.05 0 M28.18 0 C50.46 0.3, 73.59 0.77, 114.05 0 M114.05 0 C131.5 0.85, 143.54 11.37, 142.23 28.18 M114.05 0 C132.61 -0.23, 143.69 9.95, 142.23 28.18 M142.23 28.18 C143.37 45.65, 143.85 64.39, 142.23 84.55 M142.23 28.18 C141.9 44.12, 142.04 59.46, 142.23 84.55 M142.23 84.55 C142.59 104.64, 134.27 111.96, 114.05 112.74 M142.23 84.55 C139.95 103.6, 134.33 111.37, 114.05 112.74 M114.05 112.74 C89.35 113.01, 62.83 113.87, 28.18 112.74 M114.05 112.74 C91.37 111.85, 67.75 111.49, 28.18 112.74 M28.18 112.74 C8.14 110.95, 0.9 101.5, 0 84.55 M28.18 112.74 C11.49 114.4, 1.55 102.59, 0 84.55 M0 84.55 C1.1 64.01, -1.08 48.17, 0 28.18 M0 84.55 C0.51 65.9, 0.03 45.33, 0 28.18 M0 28.18 C-1.82 9.19, 10.07 1.56, 28.18 0 M0 28.18 C1.16 8.91, 7.32 0.4, 28.18 0" stroke="#1e1e1e" stroke-width="2" fill="none"></path></g><g transform="translate(865.0472455171657 531.3519054045472) rotate(0 48.599952697753906 62.5)"><text x="0" y="17.52" font-family="Virgil, Segoe UI Emoji" font-size="20px" fill="#1e1e1e" text-anchor="start" style="white-space: pre;" direction="ltr" dominant-baseline="alphabetic">:TreeItem</text><text x="0" y="42.519999999999996" font-family="Virgil, Segoe UI Emoji" font-size="20px" fill="#1e1e1e" text-anchor="start" style="white-space: pre;" direction="ltr" dominant-baseline="alphabetic">data =</text><text x="0" y="67.52" font-family="Virgil, Segoe UI Emoji" font-size="20px" fill="#1e1e1e" text-anchor="start" style="white-space: pre;" direction="ltr" dominant-baseline="alphabetic">parent =</text><text x="0" y="92.52" font-family="Virgil, Segoe UI Emoji" font-size="20px" fill="#1e1e1e" text-anchor="start" style="white-space: pre;" direction="ltr" dominant-baseline="alphabetic">children =</text><text x="0" y="117.52" font-family="Virgil, Segoe UI Emoji" font-size="20px" fill="#1e1e1e" text-anchor="start" style="white-space: pre;" direction="ltr" dominant-baseline="alphabetic"></text></g><g stroke-linecap="round"><g transform="translate(846.6945873519667 554.2927281110464) rotate(0 69.33288689383426 0.5359764999852814)"><path d="M-0.09 -0.49 C23.45 -0.38, 116.87 0.96, 140.26 1.32 M-1.59 -1.79 C21.87 -1.54, 115.8 2.64, 139.31 2.86" stroke="#1e1e1e" stroke-width="1" fill="none"></path></g></g><mask></mask><g stroke-linecap="round"><g transform="translate(944.2817480424588 423.76209133779037) rotate(0 113.03115423723892 7.049819056217899)"><path d="M-0.32 0.53 C37.45 2.57, 188.81 10.98, 226.39 12.91 M1.71 -0.24 C39.43 1.93, 188.83 12.15, 225.92 14.34" stroke="#1971c2" stroke-width="2" fill="none"></path></g><g transform="translate(944.2817480424588 423.76209133779037) rotate(0 113.03115423723892 7.049819056217899)"><path d="M201.92 21.36 C209.41 21, 214.82 17, 225.92 14.34 M201.92 21.36 C206.77 20.3, 211.77 17.49, 225.92 14.34" stroke="#1971c2" stroke-width="2" fill="none"></path></g><g transform="translate(944.2817480424588 423.76209133779037) rotate(0 113.03115423723892 7.049819056217899)"><path d="M203.02 4.3 C210.3 8.65, 215.41 9.38, 225.92 14.34 M203.02 4.3 C207.48 6.92, 212.25 7.8, 225.92 14.34" stroke="#1971c2" stroke-width="2" fill="none"></path></g></g><mask></mask><g stroke-linecap="round"><g transform="translate(946.2481042744445 568.6170004273982) rotate(0 116.15865851875645 1.7481672783696354)"><path d="M-0.58 -0.18 C38.19 0.45, 194.06 3.89, 232.9 4.81 M1.31 -1.31 C39.92 -0.55, 193.69 2.02, 232.06 2.8" stroke="#1971c2" stroke-width="2" fill="none"></path></g><g transform="translate(946.2481042744445 568.6170004273982) rotate(0 116.15865851875645 1.7481672783696354)"><path d="M208.42 10.92 C215.68 8.78, 223.97 5.4, 232.06 2.8 M208.42 10.92 C216.54 7.72, 224.79 5.22, 232.06 2.8" stroke="#1971c2" stroke-width="2" fill="none"></path></g><g transform="translate(946.2481042744445 568.6170004273982) rotate(0 116.15865851875645 1.7481672783696354)"><path d="M208.73 -6.18 C216.04 -2.81, 224.22 -0.68, 232.06 2.8 M208.73 -6.18 C216.85 -3.21, 224.98 0.47, 232.06 2.8" stroke="#1971c2" stroke-width="2" fill="none"></path></g></g><mask></mask><g stroke-linecap="round"><g transform="translate(901.6773630161035 300.5371008000243) rotate(0 20.341819849055923 -64.60008985160215)"><path d="M0.4 -0.51 C16.47 -11.84, 106.74 -46.75, 96.86 -68.12 C86.99 -89.48, -32.86 -118.82, -58.84 -128.69 M-0.85 -1.82 C15.57 -12.99, 108.88 -45.95, 99.16 -66.9 C89.43 -87.84, -32.92 -117.1, -59.18 -127.49" stroke="#1971c2" stroke-width="2" fill="none"></path></g><g transform="translate(901.6773630161035 300.5371008000243) rotate(0 20.341819849055923 -64.60008985160215)"><path d="M-34.21 -128.65 C-43.39 -129.51, -51.89 -126.45, -59.18 -127.49 M-34.21 -128.65 C-41.22 -128.91, -48.34 -128.76, -59.18 -127.49" stroke="#1971c2" stroke-width="2" fill="none"></path></g><g transform="translate(901.6773630161035 300.5371008000243) rotate(0 20.341819849055923 -64.60008985160215)"><path d="M-39.3 -112.33 C-46.77 -118.66, -53.56 -121.04, -59.18 -127.49 M-39.3 -112.33 C-44.97 -117.23, -50.65 -121.67, -59.18 -127.49" stroke="#1971c2" stroke-width="2" fill="none"></path></g></g><mask></mask><g stroke-linecap="round"><g transform="translate(979.0207081408716 448.01381819894647) rotate(0 -4.938034595222064 -59.02047214876907)"><path d="M-0.99 -1.1 C5.2 -14.93, 46.01 -62.48, 37.71 -81.81 C29.42 -101.15, -35.81 -111.06, -50.75 -117.1 M0.69 0.93 C7.21 -12.29, 48.53 -60.92, 39.92 -80.9 C31.31 -100.89, -35.69 -112.97, -50.97 -118.97" stroke="#1971c2" stroke-width="2" fill="none"></path></g><g transform="translate(979.0207081408716 448.01381819894647) rotate(0 -4.938034595222064 -59.02047214876907)"><path d="M-26.04 -120.72 C-36.48 -121.92, -45.25 -118, -50.97 -118.97 M-26.04 -120.72 C-34.53 -120.93, -44.82 -120.16, -50.97 -118.97" stroke="#1971c2" stroke-width="2" fill="none"></path></g><g transform="translate(979.0207081408716 448.01381819894647) rotate(0 -4.938034595222064 -59.02047214876907)"><path d="M-30.75 -104.28 C-39.72 -111.12, -46.87 -112.89, -50.97 -118.97 M-30.75 -104.28 C-37.46 -110.64, -45.99 -116.01, -50.97 -118.97" stroke="#1971c2" stroke-width="2" fill="none"></path></g></g><mask></mask><g stroke-linecap="round"><g transform="translate(963.9849725201811 601.8498372663349) rotate(0 17.830668018944436 -144.88216230561798)"><path d="M3.1 -6.09 C14.68 -45.63, 78.07 -197.78, 71.19 -244.04 C64.3 -290.31, -20.2 -277.06, -38.22 -283.67 M1.83 -6.66 C13.89 -46.53, 79.72 -199.64, 73.47 -245.65 C67.21 -291.66, -17.4 -276.52, -35.72 -282.74" stroke="#1971c2" stroke-width="2" fill="none"></path></g><g transform="translate(963.9849725201811 601.8498372663349) rotate(0 17.830668018944436 -144.88216230561798)"><path d="M-11.7 -289.69 C-15.23 -289.52, -20.18 -287.93, -35.72 -282.74 M-11.7 -289.69 C-17.66 -288.67, -23.87 -287.09, -35.72 -282.74" stroke="#1971c2" stroke-width="2" fill="none"></path></g><g transform="translate(963.9849725201811 601.8498372663349) rotate(0 17.830668018944436 -144.88216230561798)"><path d="M-12.86 -272.63 C-16.16 -276.06, -20.88 -278.07, -35.72 -282.74 M-12.86 -272.63 C-18.62 -275.66, -24.56 -278.13, -35.72 -282.74" stroke="#1971c2" stroke-width="2" fill="none"></path></g></g><mask></mask><g stroke-linecap="round"><g transform="translate(899.0555547067894 332.6542525891229) rotate(0 -37.59257694967778 54.58581374604327)"><path d="M0.31 -0.05 C-11.66 8.28, -62.98 30.75, -72.45 48.95 C-81.93 67.15, -59.23 99.08, -56.56 109.14 M-0.99 -1.12 C-13.03 6.99, -63.89 28.84, -73.24 47.41 C-82.59 65.98, -59.97 99.8, -57.09 110.29" stroke="#f08c00" stroke-width="2" fill="none"></path></g><g transform="translate(899.0555547067894 332.6542525891229) rotate(0 -37.59257694967778 54.58581374604327)"><path d="M-74.44 92.29 C-70.41 97.16, -64.23 101.84, -57.09 110.29 M-74.44 92.29 C-69.55 96.39, -64.26 101.41, -57.09 110.29" stroke="#f08c00" stroke-width="2" fill="none"></path></g><g transform="translate(899.0555547067894 332.6542525891229) rotate(0 -37.59257694967778 54.58581374604327)"><path d="M-58.81 85.35 C-58.67 91.96, -56.33 98.35, -57.09 110.29 M-58.81 85.35 C-58.16 91.33, -57.13 98.24, -57.09 110.29" stroke="#f08c00" stroke-width="2" fill="none"></path></g></g><mask></mask><g stroke-linecap="round"><g transform="translate(908.8873358667175 324.7888276611804) rotate(0 -78.92233290201835 136.42281003255934)"><path d="M-0.14 -1.13 C-26.07 14.16, -145.55 44.82, -156.71 90.52 C-167.87 136.23, -81.76 242.45, -67.11 273.11 M-1.67 0.89 C-27.12 15.94, -143.43 43.27, -154.37 88.78 C-165.31 134.29, -81.56 243.4, -67.32 273.97" stroke="#f08c00" stroke-width="2" fill="none"></path></g><g transform="translate(908.8873358667175 324.7888276611804) rotate(0 -78.92233290201835 136.42281003255934)"><path d="M-86.8 258.3 C-84.77 260.4, -77.62 266.62, -67.32 273.97 M-86.8 258.3 C-83.32 261.48, -77.25 265.84, -67.32 273.97" stroke="#f08c00" stroke-width="2" fill="none"></path></g><g transform="translate(908.8873358667175 324.7888276611804) rotate(0 -78.92233290201835 136.42281003255934)"><path d="M-72.16 249.45 C-73.27 253.38, -69.18 261.44, -67.32 273.97 M-72.16 249.45 C-72.07 254.71, -69.33 261.08, -67.32 273.97" stroke="#f08c00" stroke-width="2" fill="none"></path></g></g><mask></mask><g stroke-linecap="round" transform="translate(280.08292830975995 88.50320645312888) rotate(0 99.52062746758907 64.41999122383353)"><path d="M32 0 C70.01 2.05, 107.51 1.33, 167.04 0 M32 0 C78.1 -0.54, 122.77 -1.77, 167.04 0 M167.04 0 C189.67 0.47, 198.2 11.57, 199.04 32 M167.04 0 C187.35 -2.19, 200.46 10.16, 199.04 32 M199.04 32 C198.46 56.99, 200.11 85.4, 199.04 96.84 M199.04 32 C199.8 48.83, 199.11 65.12, 199.04 96.84 M199.04 96.84 C198.75 118.3, 189.1 127.98, 167.04 128.84 M199.04 96.84 C197.87 119.61, 186.95 129.02, 167.04 128.84 M167.04 128.84 C135.39 130.75, 106.77 130.1, 32 128.84 M167.04 128.84 C131.96 129.73, 96.62 129.82, 32 128.84 M32 128.84 C10.37 126.93, -0.14 117.57, 0 96.84 M32 128.84 C12.26 129.56, 1.54 116.02, 0 96.84 M0 96.84 C0.85 82.69, 1.94 66.59, 0 32 M0 96.84 C-0.1 74.91, 0.14 51.88, 0 32 M0 32 C-0.07 10.91, 9.61 0.99, 32 0 M0 32 C0.74 10.41, 12.26 -2.26, 32 0" stroke="#1e1e1e" stroke-width="2" fill="none"></path></g><g transform="translate(301.5562587177045 105.847050244161) rotate(0 52.68994903564453 12.5)"><text x="0" y="17.52" font-family="Virgil, Segoe UI Emoji" font-size="20px" fill="#1e1e1e" text-anchor="start" style="white-space: pre;" direction="ltr" dominant-baseline="alphabetic">:TreeModel</text></g><g transform="translate(313.9447185684417 166.13755485108226) rotate(0 55.099952697753906 12.5)"><text x="0" y="17.52" font-family="Virgil, Segoe UI Emoji" font-size="20px" fill="#1e1e1e" text-anchor="start" style="white-space: pre;" direction="ltr" dominant-baseline="alphabetic">rootItem =</text></g><g stroke-linecap="round"><g transform="translate(287.5160042202023 143.8383271197552) rotate(0 96.84887992859313 -1.0740203239658115)"><path d="M0.66 0.82 C32.9 0.18, 162.11 -2.56, 194.16 -2.97 M-0.46 0.21 C31.64 -0.35, 161.6 -1.06, 193.68 -1.7" stroke="#1e1e1e" stroke-width="2" fill="none"></path></g></g><mask></mask><g stroke-linecap="round"><g transform="translate(439.48111172257904 178.52601470181952) rotate(0 95.49514989476998 -12.841077184587803)"><path d="M0.67 1.1 C32 -3.19, 157.74 -22.48, 189.14 -26.78 M-0.44 0.63 C31.17 -3.46, 159.44 -21.33, 191.43 -25.86" stroke="#f08c00" stroke-width="2" fill="none"></path></g><g transform="translate(439.48111172257904 178.52601470181952) rotate(0 95.49514989476998 -12.841077184587803)"><path d="M169.35 -14.13 C180.06 -20.27, 185.04 -25.05, 191.43 -25.86 M169.35 -14.13 C176.95 -17.6, 185.62 -22.63, 191.43 -25.86" stroke="#f08c00" stroke-width="2" fill="none"></path></g><g transform="translate(439.48111172257904 178.52601470181952) rotate(0 95.49514989476998 -12.841077184587803)"><path d="M166.98 -31.07 C178.48 -30.49, 184.4 -28.53, 191.43 -25.86 M166.98 -31.07 C175.5 -28.17, 185.06 -26.84, 191.43 -25.86" stroke="#f08c00" stroke-width="2" fill="none"></path></g></g><mask></mask><g stroke-linecap="round"><g transform="translate(901.1577154933864 279.2854881544822) rotate(0 125.8987240777816 -22.29996083192873)"><path d="M-0.63 0.33 C41.33 -7.23, 210.03 -37.42, 252.43 -44.93" stroke="#2f9e44" stroke-width="2.5" fill="none" stroke-dasharray="8 10"></path></g><g transform="translate(901.1577154933864 279.2854881544822) rotate(0 125.8987240777816 -22.29996083192873)"><path d="M230.8 -32.39 C239.03 -37.24, 244.29 -39.51, 252.43 -44.93" stroke="#2f9e44" stroke-width="2.5" fill="none"></path></g><g transform="translate(901.1577154933864 279.2854881544822) rotate(0 125.8987240777816 -22.29996083192873)"><path d="M227.8 -49.22 C237.16 -48.05, 243.48 -44.31, 252.43 -44.93" stroke="#2f9e44" stroke-width="2.5" fill="none"></path></g></g><mask></mask><g stroke-linecap="round"><g transform="translate(946.5820682794231 95.11038504018877) rotate(0 47.11877434904608 3.3604119995650024)"><path d="M0.12 -0.17 C15.9 0.95, 78.63 5.44, 94.12 6.89" stroke="#2f9e44" stroke-width="2.5" fill="none" stroke-dasharray="8 10"></path></g><g transform="translate(946.5820682794231 95.11038504018877) rotate(0 47.11877434904608 3.3604119995650024)"><path d="M70.01 13.52 C75.76 11.78, 81.17 8.38, 94.12 6.89" stroke="#2f9e44" stroke-width="2.5" fill="none"></path></g><g transform="translate(946.5820682794231 95.11038504018877) rotate(0 47.11877434904608 3.3604119995650024)"><path d="M71.39 -3.52 C76.82 -1, 81.88 -0.13, 94.12 6.89" stroke="#2f9e44" stroke-width="2.5" fill="none"></path></g></g><mask></mask><g transform="translate(1064.6853855231182 93.45859039342382) rotate(0 98.52991485595703 12.5)"><text x="0" y="17.52" font-family="Virgil, Segoe UI Emoji" font-size="20px" fill="#2f9e44" text-anchor="start" style="white-space: pre;" direction="ltr" dominant-baseline="alphabetic">shared_ptr (TODO)</text></g><g stroke-linecap="round"><g transform="translate(949.5233266493087 431.25132875746067) rotate(0 105.57438030861033 10.309529515139644)"><path d="M-0.94 -0.48 C34.28 2.97, 176.4 17.7, 212.09 21.1" stroke="#2f9e44" stroke-width="2.5" fill="none" stroke-dasharray="8 10"></path></g><g transform="translate(949.5233266493087 431.25132875746067) rotate(0 105.57438030861033 10.309529515139644)"><path d="M187.86 27.27 C195.87 24.93, 206.24 24.5, 212.09 21.1" stroke="#2f9e44" stroke-width="2.5" fill="none"></path></g><g transform="translate(949.5233266493087 431.25132875746067) rotate(0 105.57438030861033 10.309529515139644)"><path d="M189.56 10.25 C197 14.1, 206.76 19.87, 212.09 21.1" stroke="#2f9e44" stroke-width="2.5" fill="none"></path></g></g><mask></mask><g stroke-linecap="round"><g transform="translate(951.1751212960739 576.6092576727775) rotate(0 109.58835367673879 7.168553829946404)"><path d="M0.96 -0.99 C37.19 1.69, 182.04 12.85, 218.22 15.33" stroke="#2f9e44" stroke-width="2.5" fill="none" stroke-dasharray="8 10"></path></g><g transform="translate(951.1751212960739 576.6092576727775) rotate(0 109.58835367673879 7.168553829946404)"><path d="M194.17 22.14 C201.37 18.38, 212.6 15.54, 218.22 15.33" stroke="#2f9e44" stroke-width="2.5" fill="none"></path></g><g transform="translate(951.1751212960739 576.6092576727775) rotate(0 109.58835367673879 7.168553829946404)"><path d="M195.42 5.08 C202.06 7.58, 212.83 10.99, 218.22 15.33" stroke="#2f9e44" stroke-width="2.5" fill="none"></path></g></g><mask></mask><g stroke-linecap="round" transform="translate(10.01450356368828 105.84705024416105) rotate(0 75.56960508949709 61.11640193030368)"><path d="M30.56 0 C67.05 0.57, 100.68 -0.29, 120.58 0 M30.56 0 C58.61 -0.82, 85.09 -0.83, 120.58 0 M120.58 0 C139.3 0.29, 150.78 8.62, 151.14 30.56 M120.58 0 C140.67 -1.4, 150.79 12.35, 151.14 30.56 M151.14 30.56 C150.84 49.52, 152.52 66.14, 151.14 91.67 M151.14 30.56 C150.83 43.56, 152.7 56.55, 151.14 91.67 M151.14 91.67 C150.7 113.82, 142.41 123.92, 120.58 122.23 M151.14 91.67 C150.14 111.66, 141.14 120, 120.58 122.23 M120.58 122.23 C86.64 122.72, 54.05 121.88, 30.56 122.23 M120.58 122.23 C89.19 122.93, 57.46 123.42, 30.56 122.23 M30.56 122.23 C11.43 124.21, -1.84 111.44, 0 91.67 M30.56 122.23 C8.95 123.47, -2.03 111.65, 0 91.67 M0 91.67 C2.42 73.95, 0.93 58.04, 0 30.56 M0 91.67 C0.09 75.5, 0.82 58.02, 0 30.56 M0 30.56 C1.69 10.14, 9.35 -1.36, 30.56 0 M0 30.56 C-0.19 11.3, 10.31 0.32, 30.56 0" stroke="#1e1e1e" stroke-width="2" fill="none"></path></g><g transform="translate(24.05475806119047 124.01679135857565) rotate(0 44.619956970214844 25)"><text x="0" y="17.52" font-family="Virgil, Segoe UI Emoji" font-size="20px" fill="#1e1e1e" text-anchor="start" style="white-space: pre;" direction="ltr" dominant-baseline="alphabetic">:TreeView</text><text x="0" y="42.519999999999996" font-family="Virgil, Segoe UI Emoji" font-size="20px" fill="#1e1e1e" text-anchor="start" style="white-space: pre;" direction="ltr" dominant-baseline="alphabetic">model =</text></g><g stroke-linecap="round"><g transform="translate(11.666298210453235 147.9678137366676) rotate(0 74.4330997452148 0.09469090195878493)"><path d="M-0.14 -0.44 C24.98 -0.45, 125.77 0.35, 150.53 0.81 M-1.67 -1.72 C23.4 -1.67, 124.72 1.57, 150.13 1.91" stroke="#1e1e1e" stroke-width="2" fill="none"></path></g></g><mask></mask><g stroke-linecap="round"><g transform="translate(124.81423151385327 162.00806823416985) rotate(0 79.17342119138753 2.9070071657949086)"><path d="M-0.59 -1.06 C25.98 0.01, 132.4 5.62, 158.93 6.87 M1.31 1 C27.78 1.64, 132.09 3.77, 158.17 4.89" stroke="#1971c2" stroke-width="2" fill="none"></path></g><g transform="translate(124.81423151385327 162.00806823416985) rotate(0 79.17342119138753 2.9070071657949086)"><path d="M134.43 12.73 C138.88 11.39, 147.34 8.74, 158.17 4.89 M134.43 12.73 C142.24 9.9, 147.89 8.92, 158.17 4.89" stroke="#1971c2" stroke-width="2" fill="none"></path></g><g transform="translate(124.81423151385327 162.00806823416985) rotate(0 79.17342119138753 2.9070071657949086)"><path d="M134.95 -4.36 C139.33 -1.21, 147.65 0.63, 158.17 4.89 M134.95 -4.36 C142.53 -2.24, 148.04 1.74, 158.17 4.89" stroke="#1971c2" stroke-width="2" fill="none"></path></g></g><mask></mask><g stroke-linecap="round" transform="translate(403.96752681713224 256.9862604231553) rotate(0 96.2170381740591 69.37537516412851)"><path d="M32 0 C72.9 -2.88, 112.68 -0.94, 160.43 0 M32 0 C79.64 -0.43, 129.99 0.88, 160.43 0 M160.43 0 C180.93 -0.1, 194.25 11.74, 192.43 32 M160.43 0 C184.05 1.88, 192.02 11.82, 192.43 32 M192.43 32 C192.73 46.18, 190.79 63.07, 192.43 106.75 M192.43 32 C192.36 54.59, 192.57 75.99, 192.43 106.75 M192.43 106.75 C193.99 126.57, 180.11 138.44, 160.43 138.75 M192.43 106.75 C193.85 126.4, 182.42 137.78, 160.43 138.75 M160.43 138.75 C111.15 138.63, 62.23 137.64, 32 138.75 M160.43 138.75 C125.72 139.11, 88.14 138.47, 32 138.75 M32 138.75 C10.43 140.51, -0.59 128.75, 0 106.75 M32 138.75 C10.99 141.02, 1.8 127, 0 106.75 M0 106.75 C-0.98 88.36, -0.82 72.74, 0 32 M0 106.75 C1.12 78.9, 0.89 49.52, 0 32 M0 32 C0.09 12.27, 10.09 0.15, 32 0 M0 32 C-1.78 11.25, 12.59 -0.14, 32 0" stroke="#1e1e1e" stroke-width="2" fill="none"></path></g><g transform="translate(422.13726793154694 270.2006175972749) rotate(0 63.359947204589844 12.5)"><text x="0" y="17.52" font-family="Virgil, Segoe UI Emoji" font-size="20px" fill="#1e1e1e" text-anchor="start" style="white-space: pre;" direction="ltr" dominant-baseline="alphabetic">:QModelIndex</text></g><g stroke-linecap="round"><g transform="translate(404.7934241405148 300.75881856242677) rotate(0 85.85365127485628 -2.0857595953515613)"><path d="M0.13 -0.5 C28.9 -0.87, 144.34 -1.73, 172.97 -2.15 M-1.26 -1.81 C27.42 -2.5, 143.89 -3.71, 172.64 -3.67" stroke="#1e1e1e" stroke-width="2" fill="none"></path></g></g><mask></mask><g transform="translate(438.65521439919655 414.73264918920927) rotate(0 17.889991760253906 12.5)"><text x="0" y="17.52" font-family="Virgil, Segoe UI Emoji" font-size="20px" fill="#1e1e1e" text-anchor="start" style="white-space: pre;" direction="ltr" dominant-baseline="alphabetic">n ...</text></g><g transform="translate(413.87829469772214 310.66958644301656) rotate(0 81.84992980957031 37.5)"><text x="0" y="17.52" font-family="Virgil, Segoe UI Emoji" font-size="20px" fill="#1e1e1e" text-anchor="start" style="white-space: pre;" direction="ltr" dominant-baseline="alphabetic">internalPointer =</text><text x="0" y="42.519999999999996" font-family="Virgil, Segoe UI Emoji" font-size="20px" fill="#1e1e1e" text-anchor="start" style="white-space: pre;" direction="ltr" dominant-baseline="alphabetic">column =</text><text x="0" y="67.52" font-family="Virgil, Segoe UI Emoji" font-size="20px" fill="#1e1e1e" text-anchor="start" style="white-space: pre;" direction="ltr" dominant-baseline="alphabetic">row =</text></g><g stroke-linecap="round"><g transform="translate(587.3575012146069 325.19845185837266) rotate(0 96.437240349413 -9.115752822276136)"><path d="M-0.05 -0.63 C31.98 -3.66, 160.97 -14.68, 192.92 -17.6" stroke="#1971c2" stroke-width="1.5" fill="none" stroke-dasharray="8 9"></path></g><g transform="translate(587.3575012146069 325.19845185837266) rotate(0 96.437240349413 -9.115752822276136)"><path d="M170.27 -7.02 C177.35 -9.95, 186.79 -15.82, 192.92 -17.6" stroke="#1971c2" stroke-width="1.5" fill="none"></path></g><g transform="translate(587.3575012146069 325.19845185837266) rotate(0 96.437240349413 -9.115752822276136)"><path d="M168.77 -24.06 C176.48 -20.83, 186.45 -20.55, 192.92 -17.6" stroke="#1971c2" stroke-width="1.5" fill="none"></path></g></g><mask></mask><g stroke-linecap="round"><g transform="translate(342.02522756344615 213.21370228388372) rotate(0 26.52428717707113 42.78750814899101)"><path d="M0.65 1.18 C9.43 15.25, 43.81 70.54, 52.4 84.4" stroke="#1971c2" stroke-width="1.5" fill="none" stroke-dasharray="8 9"></path></g><g transform="translate(342.02522756344615 213.21370228388372) rotate(0 26.52428717707113 42.78750814899101)"><path d="M32.74 68.95 C40.15 75.12, 45.3 79, 52.4 84.4" stroke="#1971c2" stroke-width="1.5" fill="none"></path></g><g transform="translate(342.02522756344615 213.21370228388372) rotate(0 26.52428717707113 42.78750814899101)"><path d="M47.27 59.93 C50.65 68.68, 51.77 75.07, 52.4 84.4" stroke="#1971c2" stroke-width="1.5" fill="none"></path></g></g><mask></mask><g transform="translate(332.94035700623886 251.20497915947783) rotate(0 16.579978942871094 12.5)"><text x="0" y="17.52" font-family="Virgil, Segoe UI Emoji" font-size="20px" fill="#1971c2" text-anchor="start" style="white-space: pre;" direction="ltr" dominant-baseline="alphabetic">use</text></g><g transform="translate(611.2677549861353 281.7631801246298) rotate(0 45.02995300292969 12.5)"><text x="0" y="17.52" font-family="Virgil, Segoe UI Emoji" font-size="20px" fill="#1971c2" text-anchor="start" style="white-space: pre;" direction="ltr" dominant-baseline="alphabetic">reference</text></g><g stroke-linecap="round" transform="translate(32.98163234032786 715.3563871141342) rotate(0 88.3695697087762 65.6157284065165)"><path d="M32 0 C73.38 -0.31, 117.23 0.12, 144.74 0 M32 0 C58.35 1.22, 86.18 -0.43, 144.74 0 M144.74 0 C166.93 0.69, 178.14 10.25, 176.74 32 M144.74 0 C164.21 1.08, 178.46 8.95, 176.74 32 M176.74 32 C178.37 53.65, 176.17 76.32, 176.74 99.23 M176.74 32 C176.28 46.5, 176.34 61.27, 176.74 99.23 M176.74 99.23 C178.52 121.18, 165.8 130.91, 144.74 131.23 M176.74 99.23 C178.77 119.5, 167.93 133.12, 144.74 131.23 M144.74 131.23 C109.44 132.26, 69.11 132.13, 32 131.23 M144.74 131.23 C102.06 129.84, 60.09 130.34, 32 131.23 M32 131.23 C10.37 130.66, -1.03 121.28, 0 99.23 M32 131.23 C8.84 129.88, -2.08 118.52, 0 99.23 M0 99.23 C1.64 82.06, -1.53 62.6, 0 32 M0 99.23 C0.68 84.9, -0.23 70.16, 0 32 M0 32 C-0.83 10.63, 11.06 -0.85, 32 0 M0 32 C-1.03 8.87, 8.78 -1.73, 32 0" stroke="#1e1e1e" stroke-width="1" fill="none"></path></g><g transform="translate(67.90613294379632 759.3306153194945) rotate(0 34.05598449707031 22.5)"><text x="0" y="31.536" font-family="Virgil, Segoe UI Emoji" font-size="36px" fill="#1e1e1e" text-anchor="start" style="white-space: pre;" direction="ltr" dominant-baseline="alphabetic">View</text></g><g stroke-linecap="round" transform="translate(359.47279707275266 716.4147053142393) rotate(0 121.70659301208707 65.6157284065165)"><path d="M32 0 C85.68 -0.11, 137.84 -3.51, 211.41 0 M32 0 C102.94 -1.31, 175.1 -1.45, 211.41 0 M211.41 0 C230.89 1.6, 244.09 9.81, 243.41 32 M211.41 0 C233.81 -1.37, 242.93 12.53, 243.41 32 M243.41 32 C242.51 50.54, 242.06 65.24, 243.41 99.23 M243.41 32 C242.42 54.12, 244.05 76.61, 243.41 99.23 M243.41 99.23 C244.7 119, 232.38 132.26, 211.41 131.23 M243.41 99.23 C242.79 122.29, 230.55 133.11, 211.41 131.23 M211.41 131.23 C175.35 132.28, 136.2 130, 32 131.23 M211.41 131.23 C153.05 129.98, 92.94 130.56, 32 131.23 M32 131.23 C9.72 132.87, 1.98 120.12, 0 99.23 M32 131.23 C12.91 130.97, -0.61 119.75, 0 99.23 M0 99.23 C-1.4 85.78, 1.48 71.41, 0 32 M0 99.23 C0.76 77.46, 0.28 57.47, 0 32 M0 32 C-0.57 10.18, 11.05 -1.49, 32 0 M0 32 C-0.09 12.65, 8.74 2.07, 32 0" stroke="#1e1e1e" stroke-width="1" fill="none"></path></g><g transform="translate(394.3972976762211 765.3889335195996) rotate(0 82.24996948242188 35)"><text x="0" y="24.528" font-family="Virgil, Segoe UI Emoji" font-size="28px" fill="#1e1e1e" text-anchor="start" style="white-space: pre;" direction="ltr" dominant-baseline="alphabetic">Proxy Model</text><text x="0" y="59.528" font-family="Virgil, Segoe UI Emoji" font-size="28px" fill="#1e1e1e" text-anchor="start" style="white-space: pre;" direction="ltr" dominant-baseline="alphabetic">(filter)</text></g><g stroke-linecap="round" transform="translate(730.413326209592 703.7148869129782) rotate(0 121.70659301208707 65.6157284065165)"><path d="M32 0 C102.57 -3.06, 171.23 -2.41, 211.41 0 M32 0 C88.93 0.8, 147.3 1.73, 211.41 0 M211.41 0 C232.6 -1.95, 244.6 11.82, 243.41 32 M211.41 0 C234.8 1.2, 245.15 8.5, 243.41 32 M243.41 32 C242.92 50.67, 241.46 67.85, 243.41 99.23 M243.41 32 C243.62 45.78, 245.02 60.52, 243.41 99.23 M243.41 99.23 C241.88 118.72, 232.45 132.93, 211.41 131.23 M243.41 99.23 C242.44 118.51, 231.61 131.03, 211.41 131.23 M211.41 131.23 C176.9 133.56, 141.07 133.29, 32 131.23 M211.41 131.23 C160.4 131.25, 108.88 131.02, 32 131.23 M32 131.23 C11.33 132.87, -0.78 119.26, 0 99.23 M32 131.23 C9.3 130.15, 0.45 121.93, 0 99.23 M0 99.23 C1.73 74.84, 1.34 51.71, 0 32 M0 99.23 C-0.81 73.99, -0.68 51.39, 0 32 M0 32 C-1.29 9.07, 11.23 0.85, 32 0 M0 32 C1.08 12.16, 8.37 1.26, 32 0" stroke="#1e1e1e" stroke-width="1" fill="none"></path></g><g transform="translate(765.3378268130605 752.6891151183385) rotate(0 37.785987854003906 17.5)"><text x="0" y="24.528" font-family="Virgil, Segoe UI Emoji" font-size="28px" fill="#1e1e1e" text-anchor="start" style="white-space: pre;" direction="ltr" dominant-baseline="alphabetic">Model</text></g><g stroke-linecap="round"><g transform="translate(200.19590795693438 765.0973425190742) rotate(0 84.62274589157677 1.9772201271073868)"><path d="M-1.19 1.08 C26.7 1.44, 139.7 1.8, 168.28 2.29 M0.39 0.6 C28.56 1.08, 142.17 3.1, 170.43 3.36" stroke="#1e1e1e" stroke-width="1" fill="none"></path></g><g transform="translate(200.19590795693438 765.0973425190742) rotate(0 84.62274589157677 1.9772201271073868)"><path d="M146.82 11.58 C157.49 6.96, 163.1 7.17, 170.43 3.36 M146.82 11.58 C154.92 8.5, 163.43 5.57, 170.43 3.36" stroke="#1e1e1e" stroke-width="1" fill="none"></path></g><g transform="translate(200.19590795693438 765.0973425190742) rotate(0 84.62274589157677 1.9772201271073868)"><path d="M147.07 -5.52 C157.66 -3.71, 163.17 2.93, 170.43 3.36 M147.07 -5.52 C155.02 -2.25, 163.45 1.17, 170.43 3.36" stroke="#1e1e1e" stroke-width="1" fill="none"></path></g></g><mask></mask><g stroke-linecap="round"><g transform="translate(598.1235511964537 769.3306153194945) rotate(0 75.57146492428842 -2.0291246503869047)"><path d="M-0.34 0.07 C25.1 -0.38, 126.14 -1.83, 151.48 -2.41 M1.68 -0.94 C27.07 -1.75, 125.7 -3.92, 150.61 -4.13" stroke="#1e1e1e" stroke-width="1" fill="none"></path></g><g transform="translate(598.1235511964537 769.3306153194945) rotate(0 75.57146492428842 -2.0291246503869047)"><path d="M127.26 4.81 C132.17 3.26, 138.16 1.78, 150.61 -4.13 M127.26 4.81 C134.63 1.83, 140.25 0.09, 150.61 -4.13" stroke="#1e1e1e" stroke-width="1" fill="none"></path></g><g transform="translate(598.1235511964537 769.3306153194945) rotate(0 75.57146492428842 -2.0291246503869047)"><path d="M126.98 -12.29 C131.99 -10.3, 138.03 -8.26, 150.61 -4.13 M126.98 -12.29 C134.54 -10.41, 140.23 -7.3, 150.61 -4.13" stroke="#1e1e1e" stroke-width="1" fill="none"></path></g></g><mask></mask></svg>